<svg width="120" height="120" viewBox="0 0 120 120" fill="none" xmlns="http://www.w3.org/2000/svg">
<rect width="120" height="120" fill="black"/>
<path d="M54.54 43.15V78.15H46.54V57.8L37.49 72.65H36.59L27.54 57.8V78.15H19.54V43.15H27.54L37.04 58.7L46.54 43.15H54.54Z" fill="white"/>
<path d="M75.2556 52.45C78.5556 52.45 81.3723 53.7333 83.7056 56.3C86.039 58.8333 87.2056 61.95 87.2056 65.65C87.2056 69.35 86.039 72.4833 83.7056 75.05C81.3723 77.5833 78.5556 78.85 75.2556 78.85C72.0556 78.85 69.5723 77.8333 67.8056 75.8V78.15H60.3056V43.15H67.8056V55.5C69.5723 53.4667 72.0556 52.45 75.2556 52.45ZM69.4556 70.1C70.589 71.2 72.0223 71.75 73.7556 71.75C75.489 71.75 76.9056 71.2 78.0056 70.1C79.139 69 79.7056 67.5167 79.7056 65.65C79.7056 63.7833 79.139 62.3 78.0056 61.2C76.9056 60.1 75.489 59.55 73.7556 59.55C72.0223 59.55 70.589 60.1 69.4556 61.2C68.3556 62.3 67.8056 63.7833 67.8056 65.65C67.8056 67.5167 68.3556 69 69.4556 70.1Z" fill="white"/>
<path d="M99.06 77.45C98.1267 78.3833 97.01 78.85 95.71 78.85C94.41 78.85 93.2933 78.3833 92.36 77.45C91.4267 76.5167 90.96 75.4 90.96 74.1C90.96 72.8 91.4267 71.6833 92.36 70.75C93.2933 69.8167 94.41 69.35 95.71 69.35C97.01 69.35 98.1267 69.8167 99.06 70.75C99.9933 71.6833 100.46 72.8 100.46 74.1C100.46 75.4 99.9933 76.5167 99.06 77.45Z" fill="#FF520D"/>
</svg>
